<svg width="620" height="131" viewBox="0 0 620 131" fill="none" xmlns="http://www.w3.org/2000/svg">
<g opacity="0.8">
<g clip-path="url(#clip0)">
<path d="M657.044 14.6642H623.143C623.143 14.6642 566.45 14.6642 517.806 41.0558C517.806 41.0558 501.459 52.7905 396.095 52.7905C396.095 52.7905 293.508 57.6393 268.082 110.503V140.776H657.044V14.6642Z" fill="url(#paint0_linear)"/>
<path d="M620 56.3539H73.8612V148.025H620V56.3539Z" fill="url(#paint1_linear)"/>
<path d="M366.357 148.222L417.431 148.222L417.431 78.9668L366.357 78.9668L366.357 148.222Z" fill="#93D8EE"/>
<path d="M417.377 148.22L450.744 148.22L450.744 79.0523L417.377 79.0523L417.377 148.22Z" fill="#FBFCFD"/>
<path d="M434.057 62.5995L450.741 79.0561H417.374L434.057 62.5995Z" fill="#FBFCFD"/>
<path d="M434.008 62.5996H382.866L366.331 79.0063H417.417L434.008 62.5996Z" fill="#3F3E85"/>
<path d="M429.875 98.902L436.253 98.902L436.253 88.8536L429.875 88.8536L429.875 98.902Z" fill="#93D8EE"/>
<path d="M429.875 121.916L436.253 121.916L436.253 111.867L429.875 111.867L429.875 121.916Z" fill="#93D8EE"/>
<path d="M395.539 98.9022L401.917 98.9022L401.917 88.8537L395.539 88.8537L395.539 98.9022Z" fill="#FBFCFD"/>
<path d="M378.891 98.9022L385.269 98.9022L385.269 88.8537L378.891 88.8537L378.891 98.9022Z" fill="#FBFCFD"/>
<path d="M395.539 121.916L401.917 121.916L401.917 111.867L395.539 111.867L395.539 121.916Z" fill="#FBFCFD"/>
<path d="M378.891 121.916L385.269 121.916L385.269 111.867L378.891 111.867L378.891 121.916Z" fill="#FBFCFD"/>
<path d="M416.654 106.988C420.147 106.988 423.436 107.861 426.321 109.401C428.529 100.331 436.663 93.5987 446.373 93.5987C455.375 93.5987 463.031 99.3959 465.854 107.475C469.136 105.262 473.082 103.971 477.332 103.971C488.345 103.971 497.347 112.636 497.943 123.557C497.962 123.171 497.974 122.784 497.974 122.398C497.974 110.94 488.729 101.652 477.326 101.652C473.076 101.652 469.13 102.943 465.848 105.156C463.025 97.077 455.369 91.2798 446.367 91.2798C436.657 91.2798 428.523 98.0121 426.314 107.082C423.429 105.542 420.141 104.67 416.648 104.67C405.245 104.67 396 113.958 396 125.415C396 125.801 396.013 126.188 396.031 126.574C396.639 115.653 405.635 106.988 416.654 106.988Z" fill="#B4D679"/>
<path d="M477.332 143.137C468.33 143.137 460.674 137.34 457.851 129.261C454.569 131.474 450.623 132.764 446.373 132.764C442.88 132.764 439.592 131.892 436.707 130.352C434.498 139.422 426.364 146.154 416.654 146.154C405.642 146.154 396.639 137.489 396.044 126.568C396.025 126.955 396.013 127.341 396.013 127.728C396.013 139.185 405.257 148.473 416.66 148.473C426.37 148.473 434.504 141.741 436.713 132.671C439.598 134.21 442.886 135.083 446.379 135.083C450.629 135.083 454.575 133.793 457.857 131.58C460.68 139.659 468.336 145.456 477.338 145.456C488.742 145.456 497.986 136.168 497.986 124.71C497.986 124.324 497.974 123.938 497.955 123.551C497.347 134.472 488.345 143.137 477.332 143.137Z" fill="#7CC242"/>
<path d="M416.654 146.154C426.364 146.154 434.498 139.422 436.706 130.352C439.591 131.891 442.88 132.764 446.373 132.764C450.623 132.764 454.569 131.474 457.851 129.261C460.674 137.34 468.33 143.137 477.332 143.137C488.345 143.137 497.347 134.472 497.943 123.551C497.341 112.636 488.345 103.965 477.332 103.965C473.082 103.965 469.136 105.255 465.854 107.468C463.031 99.3897 455.375 93.5925 446.373 93.5925C436.663 93.5925 428.529 100.325 426.32 109.395C423.435 107.855 420.147 106.982 416.654 106.982C405.642 106.982 396.639 115.647 396.044 126.568C396.639 137.489 405.635 146.154 416.654 146.154Z" fill="#7CC242"/>
<path d="M620 55.6886H594.017C594.017 55.6886 536.662 50.6458 510.853 90.246C510.853 90.246 489.376 124.909 424.132 123.47C424.132 123.47 313.693 115.616 313.693 186.719V282.475H620V55.6886Z" fill="url(#paint2_linear)"/>
<path d="M88.6086 51.7839C79.6062 51.7839 71.9501 45.9867 69.1272 37.9081C65.8451 40.121 61.8992 41.4113 57.6492 41.4113C54.1562 41.4113 50.868 40.5386 47.983 38.9989C45.7742 48.0688 37.6404 54.801 27.9307 54.801C17.0111 54.801 8.07696 46.286 7.33865 35.5081C7.30762 35.9881 7.28281 36.4681 7.28281 36.9543C7.28281 48.4116 16.5272 57.6996 27.9307 57.6996C37.6404 57.6996 45.7742 50.9674 47.983 41.8975C50.868 43.4372 54.1562 44.3099 57.6492 44.3099C61.8992 44.3099 65.8451 43.0196 69.1272 40.8067C71.9501 48.8853 79.6062 54.6826 88.6086 54.6826C100.012 54.6826 109.257 45.3945 109.257 33.9373C109.257 33.4511 109.232 32.9648 109.201 32.4911C108.456 43.2689 99.522 51.7839 88.6086 51.7839Z" fill="#69B568"/>
<path d="M179.539 44.3474H128.465V113.602H179.539V44.3474Z" fill="#FBFCFD"/>
<path d="M128.521 44.4348H95.154V113.602H128.521V44.4348Z" fill="#FFCA2A"/>
<path d="M111.838 27.9843L95.1544 44.4408H128.521L111.838 27.9843Z" fill="#FFCA2A"/>
<path d="M111.887 27.9843H163.029L179.563 44.391H128.477L111.887 27.9843Z" fill="#ED1940"/>
<path d="M116.019 54.2401H109.641V64.2885H116.019V54.2401Z" fill="#FBFCFD"/>
<path d="M116.019 77.2543H109.641V87.3028H116.019V77.2543Z" fill="#FBFCFD"/>
<path d="M116.019 100.269H109.641V110.317H116.019V100.269Z" fill="#F8DD9D"/>
<path d="M150.354 54.2407H143.976V64.2892H150.354V54.2407Z" fill="#FFCA2A"/>
<path d="M167.006 54.2401H160.628V64.2885H167.006V54.2401Z" fill="#FFCA2A"/>
<path d="M150.354 77.2543H143.976V87.3028H150.354V77.2543Z" fill="#FFCA2A"/>
<path d="M167.006 77.2544H160.628V87.3029H167.006V77.2544Z" fill="#FFCA2A"/>
<path d="M150.354 100.269H143.976V110.317H150.354V100.269Z" fill="#FFCA2A"/>
<path d="M167.006 100.269H160.628V110.317H167.006V100.269Z" fill="#FFCA2A"/>
<path d="M154.56 74.4245C156.651 74.4245 158.624 74.9294 160.38 75.8146C162.526 71.5259 166.938 68.5712 172.044 68.5712C177.15 68.5712 181.561 71.5197 183.708 75.8146C185.464 74.9356 187.43 74.4245 189.527 74.4245C196.253 74.4245 201.787 79.536 202.501 86.0999C202.55 85.6262 202.581 85.1462 202.581 84.66C202.581 77.4166 196.737 71.5384 189.521 71.5384C187.43 71.5384 185.457 72.0433 183.702 72.9284C181.555 68.6398 177.144 65.6851 172.038 65.6851C166.931 65.6851 162.52 68.6335 160.373 72.9284C158.618 72.0495 156.651 71.5384 154.554 71.5384C147.344 71.5384 141.494 77.4104 141.494 84.66C141.494 85.1462 141.525 85.6262 141.574 86.0999C142.3 79.536 147.835 74.4245 154.56 74.4245Z" fill="#B4D679"/>
<path d="M189.521 97.7815C184.415 97.7815 180.004 94.833 177.857 90.5381C176.101 91.417 174.134 91.9282 172.037 91.9282C169.947 91.9282 167.974 91.4233 166.218 90.5381C164.071 94.8268 159.66 97.7815 154.554 97.7815C147.828 97.7815 142.294 92.67 141.581 86.106C141.531 86.5798 141.5 87.0598 141.5 87.546C141.5 94.7894 147.344 100.668 154.56 100.668C159.666 100.668 164.077 97.7191 166.224 93.4242C167.98 94.3032 169.947 94.8143 172.044 94.8143C174.134 94.8143 176.107 94.3094 177.863 93.4242C180.01 97.7129 184.421 100.668 189.527 100.668C196.737 100.668 202.587 94.7956 202.587 87.546C202.587 87.0598 202.556 86.5798 202.507 86.106C201.781 92.67 196.247 97.7815 189.521 97.7815Z" fill="#95CA57"/>
<path d="M154.56 97.7817C159.666 97.7817 164.077 94.8333 166.224 90.5383C167.98 91.4173 169.947 91.9284 172.044 91.9284C174.135 91.9284 176.108 91.4235 177.863 90.5383C180.01 94.827 184.421 97.7817 189.528 97.7817C196.253 97.7817 201.787 92.6702 202.501 86.1063C201.787 79.5423 196.253 74.4308 189.528 74.4308C187.437 74.4308 185.464 74.9357 183.708 75.8209C181.561 71.5322 177.15 68.5775 172.044 68.5775C166.938 68.5775 162.526 71.526 160.38 75.8209C158.624 74.942 156.657 74.4308 154.56 74.4308C147.835 74.4308 142.3 79.5423 141.587 86.1063C142.3 92.6702 147.835 97.7817 154.56 97.7817Z" fill="#95CA57"/>
<path d="M0 17.1154H20.9311C20.9311 17.1154 78.9722 14.2814 104.047 51.7226C104.047 51.7226 125.543 87.0539 190.749 85.6119C190.749 85.6119 281.031 74.794 301.093 148.341V213.504H0V17.1154Z" fill="url(#paint3_linear)"/>
<path d="M0 101.882H197.221C197.221 101.882 278.5 96.8938 288.493 148.898" stroke="#D3E09E" stroke-width="19.1434" stroke-miterlimit="10"/>
<path d="M26.7286 120.25L77.8023 120.25L77.8023 89.3504L26.7286 89.3504L26.7286 120.25Z" fill="#93D8EE"/>
<path d="M77.7481 120.249L111.115 120.249L111.115 89.4362L77.7481 89.4362L77.7481 120.249Z" fill="#FBFCFD"/>
<path d="M94.4281 72.9907L111.111 89.4411H77.7447L94.4281 72.9907Z" fill="#FBFCFD"/>
<path d="M94.3783 72.9907H43.2363L26.7019 89.3911H77.788L94.3783 72.9907Z" fill="#3F3E85"/>
<path d="M90.2459 109.293L96.6239 109.293L96.6239 99.245L90.2459 99.245L90.2459 109.293Z" fill="#93D8EE"/>
<path d="M55.9099 109.293L62.2879 109.293L62.2879 99.245L55.9099 99.245L55.9099 109.293Z" fill="#FBFCFD"/>
<path d="M39.2617 109.293L45.6397 109.293L45.6397 99.245L39.2617 99.245L39.2617 109.293Z" fill="#FBFCFD"/>
<path d="M94.4779 115.117C98.0267 115.117 101.141 116.931 102.984 119.686C104.827 116.938 107.941 115.117 111.49 115.117C115.039 115.117 118.153 116.931 119.996 119.686C121.839 116.938 124.953 115.117 128.502 115.117C133.466 115.117 137.592 118.664 138.547 123.371H138.739C138.367 118.01 133.931 113.771 128.502 113.771C124.953 113.771 121.839 115.585 119.996 118.34C118.153 115.591 115.039 113.771 111.49 113.771C107.941 113.771 104.827 115.585 102.984 118.34C101.141 115.591 98.0267 113.771 94.4779 113.771C89.0491 113.771 84.613 118.01 84.2408 123.371H84.4331C85.3886 118.664 89.5144 115.117 94.4779 115.117Z" fill="#398061"/>
<path d="M104.715 123.371H118.272H121.734H138.56C137.604 118.664 133.478 115.117 128.515 115.117C124.966 115.117 121.852 116.931 120.009 119.687C118.166 116.938 115.052 115.117 111.503 115.117C107.954 115.117 104.839 116.931 102.997 119.687C101.154 116.938 98.0395 115.117 94.4906 115.117C89.5272 115.117 85.4013 118.664 84.4459 123.371H101.272H104.715Z" fill="#2C654E"/>
<path d="M339.274 102.251H296.08V160.822H339.274V102.251Z" fill="#FBFCFD"/>
<path d="M296.123 102.326H267.906V160.828H296.123V102.326Z" fill="#FFCA2A"/>
<path d="M282.016 88.413L267.907 102.326H296.124L282.016 88.413Z" fill="#FFCA2A"/>
<path d="M282.058 88.4126H325.309L339.293 102.282H296.092L282.058 88.4126Z" fill="#ED1940"/>
<path d="M285.558 110.617H280.16V119.113H285.558V110.617Z" fill="#FBFCFD"/>
<path d="M285.558 130.078H280.16V138.574H285.558V130.078Z" fill="#FBFCFD"/>
<path d="M314.594 110.617H309.196V119.113H314.594V110.617Z" fill="#FFCA2A"/>
<path d="M328.677 110.617H323.28V119.113H328.677V110.617Z" fill="#FFCA2A"/>
<path d="M314.594 130.078H309.196V138.575H314.594V130.078Z" fill="#FFCA2A"/>
<path d="M328.677 130.078H323.28V138.574H328.677V130.078Z" fill="#FFCA2A"/>
<path d="M542.204 91.3052H538.519V101.634H542.204V91.3052Z" fill="white"/>
<path d="M557.479 91.305H553.794V101.634H557.479V91.305Z" fill="white"/>
<path d="M572.748 91.305H569.063V101.634H572.748V91.305Z" fill="white"/>
<path d="M588.017 91.305H584.331V101.634H588.017V91.305Z" fill="white"/>
<path d="M603.292 91.305H599.606V101.634H603.292V91.305Z" fill="white"/>
<path d="M602.914 94.6212H538.892V98.1307H602.914V94.6212Z" fill="white"/>
<path d="M373.355 131.081C382.901 131.081 390.64 123.306 390.64 113.714C390.64 104.123 382.901 96.3477 373.355 96.3477C363.808 96.3477 356.069 104.123 356.069 113.714C356.069 123.306 363.808 131.081 373.355 131.081Z" fill="#95CA57"/>
<path d="M373.354 99.6764C382.338 99.6764 389.721 106.571 390.553 115.379C390.602 114.83 390.633 114.275 390.633 113.714C390.633 104.127 382.896 96.3477 373.348 96.3477C363.8 96.3477 356.063 104.121 356.063 113.714C356.063 114.275 356.094 114.83 356.144 115.379C356.987 106.571 364.364 99.6764 373.354 99.6764Z" fill="#AFD46C"/>
<path d="M373.354 110.236V145.175" stroke="white" stroke-width="1.9136" stroke-miterlimit="10"/>
<path d="M373.187 122.061L366.53 116.039" stroke="white" stroke-width="1.9136" stroke-miterlimit="10"/>
<path d="M373.534 116.694L380.198 110.672" stroke="white" stroke-width="1.9136" stroke-miterlimit="10"/>
<path d="M527.291 85.3938L578.365 85.3938L578.365 54.4941L527.291 54.4941L527.291 85.3938Z" fill="#FBFCFD"/>
<path d="M578.311 85.3921L611.678 85.3921L611.678 54.5796L578.311 54.5796L578.311 85.3921Z" fill="#93D8EE"/>
<path d="M594.997 38.1326L611.68 54.583H578.313L594.997 38.1326Z" fill="#93D8EE"/>
<path d="M594.941 38.1329H543.805L527.271 54.5334H578.35L594.941 38.1329Z" fill="#3F3E85"/>
<path d="M590.815 74.4373L597.193 74.4373L597.193 64.3887L590.815 64.3887L590.815 74.4373Z" fill="#FBFCFD"/>
<path d="M556.479 74.4373L562.857 74.4373L562.857 64.3887L556.479 64.3887L556.479 74.4373Z" fill="#93D8EE"/>
<path d="M539.831 74.4373L546.209 74.4373L546.209 64.3887L539.831 64.3887L539.831 74.4373Z" fill="#93D8EE"/>
<path d="M215.207 78.5075L218.135 38.9119C218.135 38.9119 226.182 63.2041 227.045 78.5075" fill="#288541"/>
<path d="M218.129 38.9055C218.129 38.9055 210.858 59.1459 209.22 78.5073H223.279C223.279 78.5073 222.292 60.9162 218.129 38.9055Z" fill="#399F49"/>
<path d="M48.1814 60.1369L52.2824 4.63953C52.2824 4.63953 63.5618 38.6872 64.7716 60.1369" fill="#02512E"/>
<path d="M52.2824 4.63342C52.2824 4.63342 42.0887 33.0023 39.7932 60.137H59.498C59.498 60.137 58.1144 35.4895 52.2824 4.63342Z" fill="#007042"/>
<path d="M31.0698 60.1371L33.9982 20.5416C33.9982 20.5416 42.0452 44.8337 42.9075 60.1371" fill="#288541"/>
<path d="M33.9981 20.5416C33.9981 20.5416 26.7267 40.7819 25.0887 60.1433H39.1477C39.1415 60.1371 38.155 42.5523 33.9981 20.5416Z" fill="#399F49"/>
<path d="M505.624 108.69L508.552 69.0947C508.552 69.0947 516.599 93.3869 517.461 108.69" fill="#288541"/>
<path d="M508.552 69.0886C508.552 69.0886 501.281 89.329 499.643 108.69H513.701C513.701 108.69 512.715 91.0993 508.552 69.0886Z" fill="#399F49"/>
<path d="M489.586 116.981L493.687 61.4833C493.687 61.4833 504.966 95.531 506.176 116.981" fill="#02512E"/>
<path d="M493.687 61.4772C493.687 61.4772 483.493 89.8461 481.197 116.981H500.902C500.902 116.981 499.519 92.3271 493.687 61.4772Z" fill="#007042"/>
<path d="M585.15 163.608L589.251 108.111C589.251 108.111 600.531 142.158 601.741 163.608" fill="#02512E"/>
<path d="M589.251 108.104C589.251 108.104 579.058 136.473 576.762 163.608H596.467C596.467 163.608 595.083 138.961 589.251 108.104Z" fill="#007042"/>
<path d="M568.572 163.608L571.501 124.012C571.501 124.012 579.548 148.304 580.41 163.608" fill="#288541"/>
<path d="M571.495 124.012C571.495 124.012 564.223 144.253 562.585 163.614H576.644C576.644 163.608 575.658 146.023 571.495 124.012Z" fill="#399F49"/>
</g>
</g>
<defs>
<linearGradient id="paint0_linear" x1="462.565" y1="14.663" x2="462.565" y2="140.77" gradientUnits="userSpaceOnUse">
<stop stop-color="#9DC494"/>
<stop offset="0.135417" stop-color="#86B87F"/>
<stop offset="0.2721" stop-color="#72B06B"/>
<stop offset="0.3439" stop-color="#60A95C"/>
<stop offset="0.4267" stop-color="#51A452"/>
<stop offset="0.5272" stop-color="#44A14C"/>
<stop offset="0.682292" stop-color="#3CA049"/>
<stop offset="1" stop-color="#399F48"/>
</linearGradient>
<linearGradient id="paint1_linear" x1="346.931" y1="56.3522" x2="346.931" y2="148.024" gradientUnits="userSpaceOnUse">
<stop stop-color="#A2D399"/>
<stop offset="0.2091" stop-color="#8ACA83"/>
<stop offset="0.2733" stop-color="#76C36F"/>
<stop offset="0.345" stop-color="#64BD5F"/>
<stop offset="0.4277" stop-color="#54B954"/>
<stop offset="0.528" stop-color="#47B74D"/>
<stop offset="0.786458" stop-color="#3EB54B"/>
<stop offset="1" stop-color="#3BB54A"/>
</linearGradient>
<linearGradient id="paint2_linear" x1="466.846" y1="55.4824" x2="466.846" y2="282.474" gradientUnits="userSpaceOnUse">
<stop stop-color="white"/>
<stop offset="0.0012877" stop-color="#FDFEFC"/>
<stop offset="0.0469" stop-color="#D3E1D0"/>
<stop offset="0.0956" stop-color="#B1CDAE"/>
<stop offset="0.1498" stop-color="#92BD92"/>
<stop offset="0.2084" stop-color="#78B17C"/>
<stop offset="0.2727" stop-color="#61A76A"/>
<stop offset="0.3445" stop-color="#4CA05B"/>
<stop offset="0.4272" stop-color="#369C51"/>
<stop offset="0.5276" stop-color="#22984B"/>
<stop offset="0.6642" stop-color="#0C9649"/>
<stop offset="1" stop-color="#009648"/>
</linearGradient>
<linearGradient id="paint3_linear" x1="150.548" y1="17.0656" x2="150.548" y2="213.495" gradientUnits="userSpaceOnUse">
<stop stop-color="#9DC494"/>
<stop offset="0.135417" stop-color="#86B87F"/>
<stop offset="0.2721" stop-color="#72B06B"/>
<stop offset="0.3439" stop-color="#60A95C"/>
<stop offset="0.4267" stop-color="#51A452"/>
<stop offset="0.5272" stop-color="#44A14C"/>
<stop offset="0.682292" stop-color="#3CA049"/>
<stop offset="1" stop-color="#399F48"/>
</linearGradient>
<clipPath id="clip0">
<rect width="620" height="131" fill="white"/>
</clipPath>
</defs>
</svg>
