<svg width="40" height="40" viewBox="0 0 40 40" fill="none" xmlns="http://www.w3.org/2000/svg">
<g clip-path="url(#clip0)">
<path d="M0 12.0704V36.662C0 38.5037 1.49086 39.9954 3.33336 39.9954H36.6667C38.5076 39.9954 40.0001 38.5038 40.0001 36.662V12.0704H0Z" fill="#F2F2F2"/>
<path d="M9.53749 18.8479H15.4233V33.3854H12.305V21.6146H9.53749V18.8479Z" fill="#40596B"/>
<path d="M24.45 33.5521C22.44 33.5521 20.9359 32.8696 19.9366 31.5037C18.9391 30.1379 18.4391 28.3146 18.4391 26.0337C18.4391 23.7546 18.9391 21.9287 19.9366 20.5637C20.9358 19.1996 22.44 18.5154 24.45 18.5154C26.46 18.5154 27.9659 19.1995 28.9634 20.5637C29.9625 21.9296 30.4609 23.7546 30.4609 26.0337C30.4609 28.3146 29.9625 30.1387 28.9634 31.5037C27.9659 32.8687 26.46 33.5521 24.45 33.5521ZM22.3084 22.5287C21.8509 23.4154 21.6217 24.5879 21.6217 26.0437C21.6217 27.4979 21.8509 28.6712 22.3084 29.5587C22.7659 30.4462 23.48 30.8904 24.45 30.8904C25.42 30.8904 26.1341 30.4462 26.5934 29.5587C27.0509 28.6721 27.2784 27.4979 27.2784 26.0437C27.2784 24.5879 27.0509 23.4162 26.5934 22.5287C26.1342 21.6429 25.42 21.1962 24.45 21.1962C23.48 21.1962 22.765 21.6429 22.3084 22.5287Z" fill="#40596B"/>
<path d="M36.6666 2.37624H3.33336C1.4925 2.37624 0 3.86874 0 5.7096V12.0755H40V5.7096C40 3.86874 38.5075 2.37624 36.6666 2.37624Z" fill="#CD7564"/>
<path d="M34.7041 7.2246C34.7041 8.5271 33.6491 9.58296 32.3458 9.58296C31.0433 9.58296 29.9891 8.5271 29.9891 7.2246C29.9891 5.9221 31.0441 4.86624 32.3458 4.86624C33.6491 4.86624 34.7041 5.9221 34.7041 7.2246Z" fill="white"/>
<path d="M10.0134 7.22463C10.0134 8.52713 8.95671 9.58299 7.655 9.58299C6.35328 9.58299 5.29836 8.52713 5.29836 7.22463C5.29836 5.92213 6.35336 4.86627 7.655 4.86627C8.95664 4.86627 10.0134 5.92213 10.0134 7.22463Z" fill="white"/>
<path d="M32.37 0.00485229C31.5041 0.00485229 30.8008 0.706493 30.8008 1.57399L30.7767 6.66063C30.7767 7.52727 31.4801 8.22977 32.3476 8.22977C33.2134 8.22977 33.9167 7.52727 33.9167 6.66063L33.9408 1.57399C33.9408 0.706493 33.2375 0.00485229 32.37 0.00485229Z" fill="#40596B"/>
<path d="M7.67916 0.00480652C6.8133 0.00480652 6.11002 0.706447 6.11002 1.57395L6.08588 6.65981C6.08588 7.52645 6.78924 8.22895 7.65502 8.22895C8.52252 8.22895 9.22416 7.52645 9.22416 6.65981L9.2483 1.57317C9.24838 0.706447 8.54666 0.00480652 7.67916 0.00480652Z" fill="#40596B"/>
</g>
<defs>
<clipPath id="clip0">
<rect width="40" height="40" fill="white"/>
</clipPath>
</defs>
</svg>
