<svg width="277" height="93" viewBox="0 0 277 93" fill="none" xmlns="http://www.w3.org/2000/svg">
<g clip-path="url(#clip0)">
<path d="M224.894 38.2198L222.88 37.7324L231.025 33.5955L241.37 38.8548L239.356 39.3422L230.993 35.1027L224.894 38.2198Z" fill="#1ABAB1"/>
<path d="M210.952 43.7998L212.451 44.5053L221.066 39.7655L229.5 43.6908L231.038 42.9211L221.021 38.2647L210.952 43.7998Z" fill="#1ABAB1"/>
<path d="M227.982 47.4108L226.515 46.6475L236.809 41.5165L247.939 47.2889L245.925 47.7571L236.789 42.9724L227.982 47.4108Z" fill="#1ABAB1"/>
<path d="M234.37 38.2326H231.861V42.3631L234.37 40.9841V38.2326Z" fill="#1ABAB1"/>
<path d="M230.427 38.2326H227.917V39.9964L230.382 41.0803H230.427V38.2326Z" fill="#1ABAB1"/>
<path d="M217.881 46.7822H220.75V52.1313H217.881V46.7822Z" fill="#1ABAB1"/>
<path d="M221.825 46.7822H224.694V52.1313H221.825V46.7822Z" fill="#1ABAB1"/>
<path d="M232.215 48.5717H235.799V54.9855H232.215V48.5717Z" fill="#1ABAB1"/>
<path d="M237.594 48.5717H241.177V54.9855H237.594V48.5717Z" fill="#1ABAB1"/>
<path fill-rule="evenodd" clip-rule="evenodd" d="M203.09 45.2685C203.09 30.9593 215.037 19.3119 229.719 19.3119C244.4 19.3119 256.348 30.9593 256.348 45.2685C256.346 51.9491 253.72 58.3634 249.033 63.1373C247.956 64.2154 246.82 65.2325 245.629 66.1839C244.759 66.8469 243.944 67.5783 243.191 68.371L242.419 69.2625H216.993L216.221 68.371C215.48 67.5825 214.677 66.8534 213.821 66.1903C212.631 65.2409 211.497 64.2237 210.424 63.1437C205.726 58.3724 203.093 51.9544 203.09 45.2685ZM242.271 62.2586C243.322 61.4215 244.325 60.5264 245.275 59.5777C249.062 55.7252 251.182 50.5465 251.181 45.1531C251.181 33.6082 241.531 24.1928 229.68 24.1928C217.83 24.1928 208.179 33.5954 208.179 45.1531C208.179 50.5465 210.299 55.7252 214.085 59.5777C215.039 60.5231 216.042 61.418 217.09 62.2586C217.862 62.9 218.595 63.5029 219.264 64.1443H240.096C240.74 63.5029 241.467 62.9193 242.219 62.3035L242.271 62.2586Z" fill="#1ABAB1"/>
<path fill-rule="evenodd" clip-rule="evenodd" d="M229.436 93C232.283 93.0244 235.037 91.9842 237.153 90.0845C239.269 88.1849 240.595 85.5638 240.868 82.7379L219.245 86.9197C220.23 88.7601 221.699 90.2984 223.494 91.3696C225.289 92.4408 227.343 93.0044 229.436 93Z" fill="#5DA8CB"/>
<path fill-rule="evenodd" clip-rule="evenodd" d="M218.196 74.9644V78.1713L241.261 73.7586C241.327 72.9935 241.496 72.2406 241.763 71.5202H217.63C218.032 72.6232 218.224 73.7912 218.196 74.9644Z" fill="#5DA8CB"/>
<path fill-rule="evenodd" clip-rule="evenodd" d="M218.634 84.7839L241.151 80.429V76.0163L218.196 80.461C218.175 81.9139 218.322 83.3644 218.634 84.7839Z" fill="#5DA8CB"/>
<path fill-rule="evenodd" clip-rule="evenodd" d="M256.418 30.4014C257.649 32.5251 258.609 34.794 259.275 37.1551C261.225 36.9756 263.138 36.5065 264.949 35.7633C270.096 33.6916 273.429 30.1641 272.457 27.8743C271.486 25.5846 266.545 25.405 261.424 27.4703C259.616 28.1893 257.929 29.1775 256.418 30.4014Z" fill="#1ABAB1"/>
<path fill-rule="evenodd" clip-rule="evenodd" d="M205.471 26.7199C207.021 24.7891 208.801 23.0532 210.772 21.5504C209.849 19.851 208.669 18.3041 207.272 16.9645C203.354 13.1483 198.722 11.4743 196.927 13.2253C195.132 14.9762 196.85 19.4915 200.787 23.3142C202.164 24.682 203.743 25.8307 205.471 26.7199Z" fill="#1ABAB1"/>
<path fill-rule="evenodd" clip-rule="evenodd" d="M199.185 48.809C198.876 46.3814 198.876 43.9248 199.185 41.4972C197.308 40.9283 195.356 40.6472 193.395 40.6635C187.849 40.6635 183.358 42.671 183.358 45.1531C183.358 47.6352 187.862 49.6428 193.395 49.6428C195.356 49.6589 197.308 49.3777 199.185 48.809Z" fill="#1ABAB1"/>
<path fill-rule="evenodd" clip-rule="evenodd" d="M194.392 35.7633C196.209 36.5084 198.129 36.9775 200.086 37.1551C200.755 34.7921 201.721 32.5229 202.961 30.4014C201.445 29.1759 199.751 28.1875 197.937 27.4703C192.79 25.405 187.875 25.5846 186.903 27.8743C185.932 30.1641 189.271 33.6916 194.392 35.7633Z" fill="#1ABAB1"/>
<path fill-rule="evenodd" clip-rule="evenodd" d="M214.548 19.0875C216.733 17.8772 219.058 16.9381 221.471 16.2911C221.291 14.381 220.805 12.5121 220.03 10.756C217.926 5.77244 214.304 2.48858 211.956 3.43782C209.607 4.38706 209.421 9.21024 211.537 14.1873C212.278 15.9674 213.294 17.6207 214.548 19.0875Z" fill="#1ABAB1"/>
<path fill-rule="evenodd" clip-rule="evenodd" d="M253.89 26.7199C255.623 25.8307 257.209 24.6822 258.593 23.3142C262.511 19.4659 264.229 14.9762 262.453 13.2253C260.677 11.4743 256.02 13.1483 252.108 16.9645C250.711 18.3041 249.531 19.851 248.608 21.5504C250.572 23.0544 252.345 24.7903 253.89 26.7199Z" fill="#1ABAB1"/>
<path fill-rule="evenodd" clip-rule="evenodd" d="M229.68 15.2007C230.934 15.2031 232.187 15.2802 233.431 15.4316C234.012 13.6047 234.299 11.6975 234.28 9.78104C234.28 4.38062 232.254 0 229.68 0C227.107 0 225.08 4.38062 225.08 9.78104C225.062 11.6975 225.348 13.6047 225.929 15.4316C227.174 15.28 228.426 15.2029 229.68 15.2007Z" fill="#1ABAB1"/>
<path fill-rule="evenodd" clip-rule="evenodd" d="M244.812 19.0875C246.066 17.6207 247.082 15.9674 247.823 14.1873C249.94 9.19741 249.753 4.38706 247.405 3.43782C245.057 2.48858 241.435 5.77244 239.331 10.756C238.565 12.5141 238.085 14.3825 237.909 16.2911C240.316 16.9395 242.634 17.8786 244.812 19.0875Z" fill="#1ABAB1"/>
<path fill-rule="evenodd" clip-rule="evenodd" d="M205.471 63.5864C203.734 64.4697 202.147 65.6189 200.768 66.9921C196.85 70.8404 195.125 75.33 196.907 77.081C198.69 78.8319 203.341 77.1579 207.253 73.3353C208.652 71.9983 209.833 70.4509 210.753 68.7495C208.787 67.2494 207.014 65.5155 205.471 63.5864Z" fill="#1ABAB1"/>
<path fill-rule="evenodd" clip-rule="evenodd" d="M253.89 63.5864C252.339 65.5054 250.559 67.2285 248.589 68.7174C249.509 70.418 250.69 71.9652 252.089 73.3033C256.007 77.1515 260.639 78.7999 262.434 77.0489C264.229 75.2979 262.511 70.7826 258.574 66.96C257.197 65.601 255.617 64.463 253.89 63.5864Z" fill="#1ABAB1"/>
<path fill-rule="evenodd" clip-rule="evenodd" d="M264.969 54.5173C263.152 53.7749 261.232 53.3142 259.275 53.1511C258.605 55.5141 257.639 57.7833 256.399 59.9048C257.92 61.1388 259.621 62.1338 261.443 62.8552C266.59 64.9204 271.505 64.7408 272.477 62.4511C273.448 60.1614 270.09 56.6082 264.969 54.5173Z" fill="#1ABAB1"/>
<path fill-rule="evenodd" clip-rule="evenodd" d="M202.942 59.9048C201.711 57.7811 200.752 55.5122 200.086 53.1511C198.129 53.3166 196.209 53.7772 194.392 54.5173C189.245 56.5825 185.912 60.1165 186.884 62.4062C187.855 64.696 192.796 64.8755 197.918 62.8103C199.73 62.1009 201.424 61.1213 202.942 59.9048Z" fill="#1ABAB1"/>
<path fill-rule="evenodd" clip-rule="evenodd" d="M265.966 40.6635C264.005 40.6472 262.052 40.9283 260.176 41.4972C260.484 43.9248 260.484 46.3814 260.176 48.809C262.053 49.3755 264.005 49.6545 265.966 49.6363C271.512 49.6363 276.002 47.6288 276.002 45.1467C276.002 42.6646 271.499 40.6635 265.966 40.6635Z" fill="#1ABAB1"/>
<path d="M40.5318 61.6731H45.0353L55.0589 87.5656L65.0503 61.6731H69.4316L57.1112 92.2412H52.7557L40.5318 61.6731Z" fill="#5DA8CB"/>
<path d="M72.7514 70.3381H75.7302V92.2412H72.7514V70.3381Z" fill="#5DA8CB"/>
<path d="M81.9515 70.3381H84.9238V89.5154H94.4456V92.2412H81.9515V70.3381Z" fill="#5DA8CB"/>
<path d="M98.2543 70.3381H101.233V89.5154H110.748V92.2412H98.2543V70.3381Z" fill="#5DA8CB"/>
<path d="M130.931 92.2412L128.634 86.9242H117.163L114.892 92.2412H111.752L121.402 70.3381H124.51L134.16 92.2412H130.931ZM118.34 84.1983H127.482L122.882 73.5643L118.34 84.1983Z" fill="#5DA8CB"/>
<path d="M151.833 81.5558H154.471V89.5923C152.112 91.4171 149.222 92.4278 146.236 92.4721C144.223 92.4948 142.239 91.9882 140.485 91.0034C138.756 90.0349 137.322 88.6203 136.331 86.9083C135.341 85.1963 134.831 83.2499 134.855 81.2736C134.835 79.3026 135.362 77.3645 136.38 75.6744C137.379 73.9798 138.817 72.5842 140.542 71.6337C142.332 70.6498 144.347 70.1439 146.391 70.1649C147.9 70.1626 149.396 70.4387 150.804 70.9795C152.185 71.4821 153.461 72.2344 154.568 73.1987L152.856 75.3922C151.983 74.5752 150.958 73.9368 149.839 73.5129C148.746 73.0618 147.574 72.8287 146.391 72.8267C144.895 72.8233 143.425 73.2134 142.129 73.9578C140.833 74.7021 139.757 75.7742 139.009 77.0658C138.262 78.3575 137.87 79.8228 137.872 81.3139C137.875 82.805 138.272 84.269 139.024 85.558C139.776 86.8397 140.846 87.9066 142.132 88.6559C143.436 89.4051 144.918 89.7926 146.423 89.7783C147.362 89.7758 148.295 89.6287 149.189 89.3422C150.126 89.0377 151.015 88.6061 151.833 88.0594V81.5558Z" fill="#5DA8CB"/>
<path d="M160.159 70.3381H175.265V73.064H163.137V79.8177H173.991V82.5436H163.137V89.5154H175.638V92.2412H160.159V70.3381Z" fill="#5DA8CB"/>
<path fill-rule="evenodd" clip-rule="evenodd" d="M58.2757 25.8476C61.0839 25.8498 63.8073 26.8069 65.9961 28.5606V32.7104H47.1327C48.191 30.6665 49.7871 28.9481 51.75 27.7391C53.7129 26.5302 55.9687 25.8764 58.2757 25.8476ZM58.2757 56.5889C62.7061 56.5921 66.9815 54.9635 70.2809 52.0159L66.9354 48.2895C65.0691 49.955 62.7594 51.0469 60.2848 51.4333C57.8101 51.8197 55.2761 51.4842 52.9884 50.4672C50.7007 49.4503 48.7569 47.7953 47.3914 45.7019C46.0259 43.6084 45.2971 41.1659 45.2927 38.6688C45.2904 38.2146 45.3141 37.7606 45.3635 37.309H71.0979V26.04L70.2616 25.296C68.0883 23.3415 65.47 21.9443 62.6332 21.2254C59.7965 20.5065 56.8268 20.4876 53.981 21.1702C51.1353 21.8528 48.4993 23.2164 46.301 25.143C44.1028 27.0696 42.4086 29.5011 41.3649 32.2273C40.3213 34.9535 39.9598 37.8921 40.3115 40.7888C40.6633 43.6856 41.7178 46.4533 43.3838 48.8525C45.0498 51.2516 47.2772 53.2099 49.8731 54.5579C52.469 55.9059 55.3552 56.603 58.2822 56.5889H58.2757Z" fill="#1ABAB1"/>
<path fill-rule="evenodd" clip-rule="evenodd" d="M78.7218 28.349C80.65 26.8994 82.9455 26.0148 85.3503 25.7944C87.7551 25.5741 90.1739 26.0267 92.3348 27.1015C94.4957 28.1763 96.3131 29.8306 97.5827 31.8786C98.8523 33.9265 99.5238 36.2869 99.5217 38.6944V55.7358H104.546V38.6944C104.546 35.2291 103.539 31.838 101.649 28.9301C99.7584 26.0221 97.0643 23.7216 93.8916 22.3059C90.7189 20.8902 87.2031 20.4199 83.7682 20.9515C80.3334 21.4832 77.1262 22.9943 74.5335 25.3024L73.6971 26.0528V55.7358H78.7218V28.349Z" fill="#1ABAB1"/>
<path fill-rule="evenodd" clip-rule="evenodd" d="M140.658 49.0848C138.395 50.7571 135.652 51.6568 132.835 51.6503C131.143 51.6655 129.464 51.3477 127.895 50.7151C126.326 50.0825 124.897 49.1475 123.691 47.9637C122.485 46.7798 121.525 45.3704 120.866 43.8162C120.208 42.2619 119.863 40.5934 119.852 38.9061V22.4483H114.827V38.9125C114.871 43.6359 116.793 48.1491 120.169 51.4627C123.546 54.7762 128.103 56.6197 132.841 56.5889C137.26 56.5999 141.531 55.0036 144.853 52.0993L145.683 51.3681V22.4483H140.665V49.0848" fill="#1ABAB1"/>
<path fill-rule="evenodd" clip-rule="evenodd" d="M158.64 32.2486H154.78C153.429 32.2486 153.23 31.3506 153.23 30.8119C153.23 29.7921 153.957 28.6632 155.16 27.791C156.498 26.8417 159.071 25.7065 163.729 25.7065C166.905 25.7055 169.968 26.8751 172.331 28.9903L175.664 25.2768C172.386 22.3424 168.135 20.7204 163.729 20.723C159.001 20.723 155.037 21.762 152.265 23.731C149.691 25.559 148.211 28.1437 148.211 30.7862C148.2 31.641 148.362 32.4892 148.688 33.2798C149.014 34.0704 149.497 34.787 150.109 35.3864C150.72 35.9857 151.447 36.4554 152.245 36.7671C153.044 37.0788 153.897 37.2261 154.754 37.2H158.615C165.73 37.2 171.482 41.2535 171.482 46.237C171.453 47.8911 170.837 49.4816 169.745 50.7267H149.318V55.7359H171.919L172.646 55.0175C173.841 53.8884 174.798 52.5332 175.46 51.031C176.123 49.5288 176.479 47.9099 176.506 46.2691C176.506 38.5725 168.477 32.2486 158.615 32.2486" fill="#1ABAB1"/>
<path fill-rule="evenodd" clip-rule="evenodd" d="M21.6105 56.5889C26.941 56.5898 32.0808 54.612 36.0283 51.041L36.8518 50.2905V32.3319H21.6105V37.3347H31.9043V48.0136C28.9796 50.3361 25.3497 51.5981 21.6105 51.5925C17.1468 51.5925 12.866 49.8248 9.70967 46.6782C6.55337 43.5317 4.78017 39.264 4.78017 34.8141C4.78017 30.3641 6.55337 26.0965 9.70967 22.9499C12.866 19.8033 17.1468 18.0356 21.6105 18.0356C25.7167 18.0364 29.6753 19.5615 32.715 22.3136L36.0283 18.6C32.0824 15.0305 26.9452 13.0528 21.617 13.0521C16.0291 13.3545 10.7699 15.7805 6.92162 19.8309C3.07331 23.8813 0.928513 29.248 0.928513 34.8269C0.928513 40.4058 3.07331 45.7725 6.92162 49.8229C10.7699 53.8733 16.0291 56.2993 21.617 56.6017" fill="#1ABAB1"/>
<path fill-rule="evenodd" clip-rule="evenodd" d="M107.12 55.7359H112.267V22.4483H107.12V55.7359Z" fill="#1ABAB1"/>
<path fill-rule="evenodd" clip-rule="evenodd" d="M109.687 12.1862C109.008 12.1862 108.345 12.3869 107.781 12.7628C107.217 13.1387 106.777 13.673 106.518 14.298C106.259 14.9231 106.191 15.6108 106.324 16.2741C106.457 16.9374 106.784 17.5465 107.264 18.0243C107.745 18.5022 108.356 18.8272 109.022 18.9584C109.687 19.0896 110.377 19.021 111.004 18.7613C111.63 18.5015 112.165 18.0624 112.541 17.4993C112.917 16.9363 113.117 16.2748 113.116 15.5984C113.114 14.6928 112.752 13.8249 112.109 13.1852C111.466 12.5455 110.595 12.1862 109.687 12.1862Z" fill="#1ABAB1"/>
</g>
<defs>
<clipPath id="clip0">
<path d="M0 0H276.002V93H0V0Z" fill="white"/>
</clipPath>
</defs>
</svg>
