<svg width="40" height="40" viewBox="0 0 40 40" fill="none" xmlns="http://www.w3.org/2000/svg">
<g clip-path="url(#clip0)">
<path d="M31.395 0.701691H11.1243C10.1914 0.701691 9.43506 1.42334 9.43506 2.31354V37.7742C9.43506 38.6644 10.1914 39.386 11.1243 39.386H31.395C32.3279 39.386 33.0842 38.6644 33.0842 37.7742V2.31354C33.0842 1.42334 32.3279 0.701691 31.395 0.701691Z" fill="#90A4AE"/>
<path d="M11.4947 4.91223H31.0386V35.1755H11.4947V4.91223Z" fill="#EBF7FB"/>
<path d="M18 3.33327C17.8604 3.33327 17.7265 3.27782 17.6278 3.17912C17.5291 3.08042 17.4737 2.94655 17.4737 2.80696C17.4737 2.66737 17.5291 2.5335 17.6278 2.43479C17.7265 2.33609 17.8604 2.28064 18 2.28064C18.1396 2.28064 18.2735 2.33609 18.3722 2.43479C18.4709 2.5335 18.5263 2.66737 18.5263 2.80696C18.5263 2.94655 18.4709 3.08042 18.3722 3.17912C18.2735 3.27782 18.1396 3.33327 18 3.33327Z" fill="#546E7A"/>
<path d="M22.3719 37.807H18.1614C18.0218 37.807 17.8879 37.7516 17.7892 37.6529C17.6905 37.5542 17.6351 37.4203 17.6351 37.2807C17.6351 37.1411 17.6905 37.0073 17.7892 36.9085C17.8879 36.8098 18.0218 36.7544 18.1614 36.7544H22.3719C22.5115 36.7544 22.6454 36.8098 22.7441 36.9085C22.8428 37.0073 22.8982 37.1411 22.8982 37.2807C22.8982 37.4203 22.8428 37.5542 22.7441 37.6529C22.6454 37.7516 22.5115 37.807 22.3719 37.807Z" fill="#546E7A"/>
<path d="M22.3719 3.33327H20.2667C20.1271 3.33327 19.9932 3.27782 19.8945 3.17912C19.7958 3.08042 19.7403 2.94655 19.7403 2.80696C19.7403 2.66737 19.7958 2.5335 19.8945 2.43479C19.9932 2.33609 20.1271 2.28064 20.2667 2.28064H22.3719C22.5115 2.28064 22.6454 2.33609 22.7441 2.43479C22.8428 2.5335 22.8982 2.66737 22.8982 2.80696C22.8982 2.94655 22.8428 3.08042 22.7441 3.17912C22.6454 3.27782 22.5115 3.33327 22.3719 3.33327Z" fill="#546E7A"/>
<path d="M19.2982 11.4211H3.15784C1.80135 11.4211 0.701691 12.5207 0.701691 13.8772C0.701691 15.2337 1.80135 16.3333 3.15784 16.3333H19.2982C20.6547 16.3333 21.7544 15.2337 21.7544 13.8772C21.7544 12.5207 20.6547 11.4211 19.2982 11.4211Z" fill="white"/>
<path d="M19.2982 17.0351H3.15784C2.32032 17.0351 1.51709 16.7024 0.924868 16.1101C0.332646 15.5179 -6.10352e-05 14.7147 -6.10352e-05 13.8772C-6.10352e-05 13.0396 0.332646 12.2364 0.924868 11.6442C1.51709 11.052 2.32032 10.7193 3.15784 10.7193H19.2982C20.1358 10.7193 20.939 11.052 21.5312 11.6442C22.1234 12.2364 22.4562 13.0396 22.4562 13.8772C22.4562 14.7147 22.1234 15.5179 21.5312 16.1101C20.939 16.7024 20.1358 17.0351 19.2982 17.0351ZM3.15784 12.1228C2.69255 12.1228 2.24631 12.3076 1.9173 12.6366C1.58829 12.9656 1.40345 13.4119 1.40345 13.8772C1.40345 14.3425 1.58829 14.7887 1.9173 15.1177C2.24631 15.4467 2.69255 15.6316 3.15784 15.6316H19.2982C19.7635 15.6316 20.2098 15.4467 20.5388 15.1177C20.8678 14.7887 21.0526 14.3425 21.0526 13.8772C21.0526 13.4119 20.8678 12.9656 20.5388 12.6366C20.2098 12.3076 19.7635 12.1228 19.2982 12.1228H3.15784Z" fill="#26A69A"/>
<path d="M3.6561 8.20697C4.9002 8.20697 5.90874 7.19843 5.90874 5.95433C5.90874 4.71023 4.9002 3.70169 3.6561 3.70169C2.412 3.70169 1.40346 4.71023 1.40346 5.95433C1.40346 7.19843 2.412 8.20697 3.6561 8.20697Z" fill="white"/>
<path d="M3.6561 8.90877C2.97325 8.90454 2.31296 8.6639 1.78751 8.22777C1.26207 7.79165 0.903922 7.18698 0.773985 6.5166C0.644049 5.84622 0.750347 5.15153 1.0748 4.55067C1.39925 3.94982 1.92183 3.47991 2.55364 3.22087C3.18546 2.96182 3.8875 2.92964 4.54036 3.12979C5.19323 3.32994 5.7566 3.75007 6.13467 4.31872C6.51273 4.88737 6.68214 5.56942 6.61409 6.24888C6.54603 6.92834 6.24471 7.56324 5.76137 8.04561C5.48469 8.32118 5.15625 8.53931 4.79494 8.68745C4.43363 8.83558 4.04659 8.9108 3.6561 8.90877ZM3.6561 4.40349C3.29567 4.40356 2.94642 4.5286 2.66786 4.75731C2.38929 4.98601 2.19864 5.30423 2.12839 5.65774C2.05814 6.01125 2.11264 6.37819 2.2826 6.69602C2.45256 7.01386 2.72746 7.26293 3.06048 7.4008C3.39349 7.53867 3.764 7.55681 4.10889 7.45213C4.45378 7.34745 4.7517 7.12642 4.95189 6.82671C5.15209 6.52699 5.24217 6.16714 5.20679 5.80846C5.1714 5.44977 5.01275 5.11445 4.75786 4.85963C4.61339 4.71466 4.44166 4.59972 4.25257 4.52144C4.06347 4.44315 3.86076 4.40306 3.6561 4.40349Z" fill="#26A69A"/>
<path d="M7.12949 10C7.01559 10.0007 6.90268 9.97881 6.79723 9.93566C6.69178 9.89252 6.59587 9.82895 6.515 9.74861L5.20811 8.43087C5.06632 8.26502 4.99223 8.05169 5.00065 7.8335C5.00906 7.61532 5.09936 7.40835 5.2535 7.25395C5.40763 7.09955 5.61426 7.0091 5.83208 7.00068C6.04991 6.99225 6.26288 7.06646 6.42845 7.20849L7.74399 8.51756C7.82511 8.59815 7.8895 8.69404 7.93344 8.79968C7.97738 8.90532 8 9.01864 8 9.13308C8 9.24753 7.97738 9.36084 7.93344 9.46649C7.8895 9.57213 7.82511 9.66801 7.74399 9.74861C7.66312 9.82895 7.56721 9.89252 7.46176 9.93566C7.35631 9.97881 7.2434 10.0007 7.12949 10Z" fill="#26A69A"/>
<path d="M36.9286 20H24.0714C23.4797 20 23 20.4797 23 21.0713V31.9287C23 32.5204 23.4797 33 24.0714 33H36.9286C37.5203 33 38 32.5204 38 31.9287V21.0713C38 20.4797 37.5203 20 36.9286 20Z" fill="#FF8A80"/>
<path d="M27 30.3918V22.5784C27.0034 22.4783 27.0289 22.3808 27.0742 22.2946C27.1196 22.2084 27.1833 22.1364 27.2596 22.0851C27.336 22.0337 27.4225 22.0046 27.5113 22.0005C27.6002 21.9964 27.6885 22.0174 27.7683 22.0615L34.7045 25.9622C34.7932 26.0121 34.8679 26.0888 34.9201 26.1838C34.9723 26.2788 35 26.3884 35 26.5001C35 26.6119 34.9723 26.7214 34.9201 26.8164C34.8679 26.9115 34.7932 26.9882 34.7045 27.038L27.7683 30.9387C27.6865 30.9839 27.5958 31.0047 27.5048 30.9992C27.4138 30.9936 27.3256 30.9619 27.2485 30.9071C27.1715 30.8522 27.1082 30.7761 27.0647 30.6859C27.0212 30.5957 26.9989 30.4944 27 30.3918Z" fill="white"/>
</g>
<defs>
<clipPath id="clip0">
<rect width="40" height="40" fill="white"/>
</clipPath>
</defs>
</svg>
