<svg width="40" height="40" viewBox="0 0 40 40" fill="none" xmlns="http://www.w3.org/2000/svg">
<path d="M2.56107 8.30862L4.68529 17.2344C2.34286 17.7762 2.49888 17.7346 2.40482 17.7758L0.280599 8.85159C-0.480339 5.64768 1.88451 2.5883 5.12357 2.46252C4.86654 3.17424 4.86654 4.04377 5.20169 4.80471C3.42747 4.88284 2.14544 6.56252 2.56107 8.30862Z" fill="#E4EDEF"/>
<path d="M25.2259 8.85159L23.1017 17.7758C23.0076 17.7345 23.1613 17.7756 20.8212 17.2344L22.9454 8.30862C23.3619 6.56018 22.0767 4.88284 20.3048 4.80471C20.6353 4.05471 20.6408 3.16565 20.3978 2.46252C23.6345 2.59768 25.9845 5.65705 25.2259 8.85159Z" fill="#BFDFE7"/>
<path d="M35.722 19.3985V34.9219C35.722 37.7219 33.4439 40 30.6439 40H16.6595C13.8595 40 11.5814 37.7219 11.5814 34.9219V30.1563H13.9251V34.9219C13.9251 36.4297 15.1517 37.6563 16.6595 37.6563H30.6439C32.1517 37.6563 33.3782 36.4297 33.3782 34.9219V19.3789C34.1446 19.575 34.9509 19.582 35.722 19.3985Z" fill="#027893"/>
<path d="M35.722 19.3985V34.9219C35.722 37.7219 33.4439 40 30.6439 40H16.6595C15.0907 40 13.6853 39.2844 12.7532 38.1625V30.1563H13.9251V34.9219C13.9251 36.4297 15.1517 37.6563 16.6595 37.6563H30.6439C32.1517 37.6563 33.3782 36.4297 33.3782 34.9219V19.3789C34.1446 19.575 34.9509 19.582 35.722 19.3985Z" fill="#00607F"/>
<path d="M34.5892 19.9219C37.5016 19.9219 39.8626 17.5609 39.8626 14.6484C39.8626 11.736 37.5016 9.375 34.5892 9.375C31.6767 9.375 29.3157 11.736 29.3157 14.6484C29.3157 17.5609 31.6767 19.9219 34.5892 19.9219Z" fill="#23A5F6"/>
<path d="M34.5892 17.5781C36.2072 17.5781 37.5189 16.2665 37.5189 14.6484C37.5189 13.0304 36.2072 11.7188 34.5892 11.7188C32.9712 11.7188 31.6595 13.0304 31.6595 14.6484C31.6595 16.2665 32.9712 17.5781 34.5892 17.5781Z" fill="#BFDFE7"/>
<path d="M17.4895 0C15.5765 0 13.9782 1.53312 13.9265 3.41766C13.8744 5.31352 15.3528 7.03125 17.4895 7.03125C19.4011 7.03125 20.9564 5.47602 20.9564 3.56437V3.46688C20.9564 1.55523 19.4011 0 17.4895 0V0Z" fill="#23A5F6"/>
<path d="M8.06573 0C6.12722 0 4.55011 1.57711 4.55011 3.51562C4.55011 5.565 6.17589 7.03125 8.01698 7.03125C9.92995 7.03125 11.5283 5.49813 11.58 3.61359C11.6346 1.62867 10.0449 0 8.06573 0Z" fill="#63C6F8"/>
<path d="M10.4876 29.2969V27.6607C10.4876 27.134 10.1366 26.6714 9.62874 26.5314C5.71796 25.4537 2.58663 22.3793 1.47249 18.4161C1.35186 17.9871 1.61491 17.5442 2.04905 17.4437L5.09757 16.738C5.496 16.6457 5.90249 16.8751 6.0196 17.267C6.89718 20.2024 9.62241 22.2657 12.7533 22.2657C15.8841 22.2657 18.6094 20.2025 19.4869 17.2669C19.6041 16.875 20.0105 16.6457 20.409 16.7379L23.4575 17.4436C23.8916 17.5441 24.1546 17.9871 24.034 18.416C22.9205 22.377 19.7905 25.4532 15.8778 26.5314C15.37 26.6713 15.0189 27.1339 15.0189 27.6607V29.2969C15.0189 29.9441 14.4942 30.4688 13.847 30.4688H11.6595C11.0123 30.4688 10.4876 29.9441 10.4876 29.2969Z" fill="#63C6F8"/>
<path d="M24.0337 18.4164C22.9226 22.3673 19.8004 25.4499 15.8775 26.5312C15.3696 26.6711 15.0189 27.1336 15.0189 27.6609V29.2969C15.0189 29.9463 14.4909 30.4687 13.847 30.4687H12.7532V22.2656C15.8837 22.2656 18.6095 20.2023 19.4868 17.2672C19.604 16.875 20.0103 16.6453 20.4087 16.7383L23.4571 17.4437C23.8915 17.5437 24.1548 17.9867 24.0337 18.4164Z" fill="#23A5F6"/>
</svg>
